<svg width="33" height="30" viewBox="0 0 33 30" fill="none" xmlns="http://www.w3.org/2000/svg">
<g clip-path="url(#clip0_240_10555)">
<path d="M20.1734 29.9579C20.2959 29.9579 20.4795 29.899 20.602 29.8401C20.9693 29.6045 21.0918 29.1333 20.8469 28.8387L15.5203 23.3016C15.3979 23.0659 15.153 22.9481 14.8469 22.9481H3.153C2.4183 22.9481 1.86728 22.418 1.86728 21.7111V7.98599C1.86728 7.27912 2.47953 6.74896 3.153 6.74896L16.7142 6.74896C17.1428 6.74896 17.5101 6.39553 17.5101 5.98319C17.5101 5.57084 17.1428 5.21741 16.7142 5.21741H3.153C1.62238 5.27631 0.33667 6.45443 0.33667 7.98599V21.7111C0.33667 23.1837 1.62238 24.4208 3.153 24.4208H14.4183L19.5612 29.6045C19.6836 29.8401 19.9285 29.9579 20.1734 29.9579Z" fill="#0086FF"/>
<path d="M24.245 24.4207H22.1634C21.7348 24.4207 21.3674 24.0673 21.3674 23.7728C21.3674 23.3604 21.7348 23.007 22.1634 23.007H24.245C24.9797 23.007 25.5307 22.4768 25.5307 21.77V14.3478H27.0613V21.7111C27.0613 23.1837 25.8368 24.4207 24.245 24.4207Z" fill="#0086FF"/>
<path d="M14.143 13.6957C13.0337 13.6957 12.1226 14.578 12.1226 15.6522C12.1226 16.7264 13.0337 17.6087 14.143 17.6087C15.2522 17.6087 16.1634 16.7264 16.1634 15.6522C16.1238 14.5397 15.2126 13.6957 14.143 13.6957Z" fill="#0086FF"/>
<path d="M20.2042 13.6957C19.095 13.6957 18.1838 14.578 18.1838 15.6522C18.1838 16.7264 19.095 17.6087 20.2042 17.6087C21.3135 17.6087 22.2247 16.7264 22.2247 15.6522C22.185 14.5397 21.2739 13.6957 20.2042 13.6957Z" fill="#0086FF"/>
<path d="M8.08169 13.6957C6.97244 13.6957 6.06128 14.578 6.06128 15.6522C6.06128 16.7264 6.97244 17.6087 8.08169 17.6087C9.19093 17.6087 10.1021 16.7264 10.1021 15.6522C10.0625 14.5397 9.15132 13.6957 8.08169 13.6957Z" fill="#0086FF"/>
<path d="M26.2652 3.26089C27.7706 3.26089 28.9591 4.41179 28.9591 5.86959C28.9591 7.32739 27.7706 8.47828 26.2652 8.47828C24.7598 8.47828 23.5713 7.32739 23.5713 5.86959C23.5713 4.41179 24.7598 3.26089 26.2652 3.26089ZM26.2652 1.95654C24.0467 1.95654 22.2244 3.72125 22.2244 5.86959C22.2244 8.01792 24.0467 9.78263 26.2652 9.78263C28.4837 9.78263 30.306 8.01792 30.306 5.86959C30.2268 3.64452 28.4044 1.95654 26.2652 1.95654Z" fill="#C74233"/>
<path d="M26.2651 3.26092L26.2651 0.652222" stroke="#C74233" stroke-width="1.5" stroke-linecap="round"/>
<path d="M31.6529 5.86963L28.959 5.86963" stroke="#C74233" stroke-width="1.5" stroke-linecap="round"/>
<path d="M23.5713 5.86963L20.8774 5.86963" stroke="#C74233" stroke-width="1.5" stroke-linecap="round"/>
<path d="M26.2651 8.47834L26.2651 11.087" stroke="#C74233" stroke-width="1.5" stroke-linecap="round"/>
<path d="M26.2652 7.174C27.009 7.174 27.6121 6.59003 27.6121 5.86966C27.6121 5.14928 27.009 4.56531 26.2652 4.56531C25.5213 4.56531 24.9182 5.14928 24.9182 5.86966C24.9182 6.59003 25.5213 7.174 26.2652 7.174Z" fill="#C74233"/>
</g>
<defs>
<clipPath id="clip0_240_10555">
<rect width="33" height="30" fill="white"/>
</clipPath>
</defs>
</svg>
